<svg
  width="542"
  height="424"
  viewBox="0 0 542 424"
  fill="none"
  xmlns="http://www.w3.org/2000/svg"
>
<path
    d="M122.858 218.644L116.19 234.169C114.893 237.187 114.225 240.437 114.225 243.721C114.225 254.797 121.745 264.46 132.482 267.181L138.657 268.746C144.526 270.233 150.694 270.045 156.462 268.203L170.366 263.764C172.888 262.959 175.469 262.356 178.087 261.959L229.832 254.123C232.31 253.748 234.812 253.559 237.319 253.559H302.5L336.329 257.352C345.067 258.331 353.353 261.749 360.241 267.215L368.54 273.802C371.452 276.113 375.06 277.371 378.777 277.371H379.296C385.758 277.371 391.559 273.414 393.919 267.399C394.49 265.942 395.277 264.578 396.252 263.353L409.1 247.209L425.14 222.518C426.793 219.974 429.083 217.907 431.782 216.522L433.196 215.796C440.531 212.032 443.699 203.231 440.445 195.655C439.037 192.377 436.553 189.677 433.403 188.001L430.767 186.598C425.364 183.723 419.071 183.004 413.159 184.587L400.615 187.945L369.324 193.236L338.564 200.644L334.19 202.281C329.128 204.175 323.423 202.85 319.714 198.918C318.163 197.273 316.222 196.047 314.07 195.353L309.3 193.813C302.805 191.716 295.82 191.687 289.309 193.729L280.755 196.411L269.375 200.798C261.884 203.686 253.454 202.73 246.8 198.239C242.012 195.008 236.239 193.567 230.494 194.17L209.158 196.411H181.197C176.553 196.411 171.959 195.447 167.707 193.581L158.865 189.699C152.043 186.704 147.637 179.958 147.637 172.508V167.73C147.637 165.441 146.664 163.26 144.961 161.73C143.286 160.226 141.059 159.491 138.818 159.702L133.821 160.172C123.024 161.188 115.124 170.809 116.227 181.597L116.352 182.817C116.697 186.184 117.86 189.416 119.74 192.23L120.54 193.428C125.532 200.899 126.405 210.388 122.858 218.644Z"
    fill="#181825"
    stroke="#CBA6F7"
    stroke-width="140"
  />
<path
    d="M122.858 218.644L116.19 234.169C114.893 237.187 114.225 240.437 114.225 243.721C114.225 254.797 121.745 264.46 132.482 267.181L138.657 268.746C144.526 270.233 150.694 270.045 156.462 268.203L170.366 263.764C172.888 262.959 175.469 262.356 178.087 261.959L229.832 254.123C232.31 253.748 234.812 253.559 237.319 253.559H302.5L336.329 257.352C345.067 258.331 353.353 261.749 360.241 267.215L368.54 273.802C371.452 276.113 375.06 277.371 378.777 277.371H379.296C385.758 277.371 391.559 273.414 393.919 267.399C394.49 265.942 395.277 264.578 396.252 263.353L409.1 247.209L425.14 222.518C426.793 219.974 429.083 217.907 431.782 216.522L433.196 215.796C440.531 212.032 443.699 203.231 440.445 195.655C439.037 192.377 436.553 189.677 433.403 188.001L430.767 186.598C425.364 183.723 419.071 183.004 413.159 184.587L400.615 187.945L369.324 193.236L338.564 200.644L334.19 202.281C329.128 204.175 323.423 202.85 319.714 198.918C318.163 197.273 316.222 196.047 314.07 195.353L309.3 193.813C302.805 191.716 295.82 191.687 289.309 193.729L280.755 196.411L269.375 200.798C261.884 203.686 253.454 202.73 246.8 198.239C242.012 195.008 236.239 193.567 230.494 194.17L209.158 196.411H181.197C176.553 196.411 171.959 195.447 167.707 193.581L158.865 189.699C152.043 186.704 147.637 179.958 147.637 172.508V167.73C147.637 165.441 146.664 163.26 144.961 161.73C143.286 160.226 141.059 159.491 138.818 159.702L133.821 160.172C123.024 161.188 115.124 170.809 116.227 181.597L116.352 182.817C116.697 186.184 117.86 189.416 119.74 192.23L120.54 193.428C125.532 200.899 126.405 210.388 122.858 218.644Z"
    fill="#181825"
    stroke="#181825"
    stroke-width="120"
  />
<mask
    id="mask0_1_107"
    style="mask-type:alpha"
    maskUnits="userSpaceOnUse"
    x="121"
    y="190"
    width="283"
    height="71"
  >
<path
      d="M391.737 219.924L392.557 222.984C393.948 228.177 396.272 232.027 401.018 234.532C401.698 234.846 402.874 235.525 403.147 236.545C403.297 237.101 403.167 237.732 402.643 238.37C402.692 238.555 395.276 247.599 395.276 247.599C394.548 248.589 393.695 249.116 392.86 249.339C391.191 249.787 375.038 248.847 370.615 232.342L369.77 229.189C367.161 219.452 361.339 216.64 354.47 218.082L361.728 252.215C361.976 253.142 361.365 254.201 360.438 254.449L360.253 254.499L341.458 258.541C340.321 258.746 339.355 258.11 339.057 256.998L328.641 208.108C328.46 207.063 329.071 206.005 329.998 205.756L330.184 205.707L340.718 203.48C344.136 201.769 347.468 200.479 350.806 199.585C369.63 194.541 386.991 202.213 391.737 219.924Z"
      fill="#CBA6F7"
    />
<path
      d="M322.17 219.987C325.421 238.423 308.519 252.029 295.094 254.396C279.684 257.113 264.197 248.341 261.263 231.702C257.829 212.226 270.605 199.543 287.244 196.609C308.138 192.925 320.003 207.697 322.17 219.987ZM294.179 235.938C300.892 234.755 302.95 228.738 302 223.349C301.683 221.553 299.688 212.449 290.045 214.149C282.103 215.55 281.018 222.662 281.768 226.916C282.918 233.44 288.79 236.889 294.179 235.938Z"
      fill="#CBA6F7"
    />
<path
      d="M227.205 255.293L226.071 255.093C204.61 251.309 196.416 234.755 198.95 220.384C201.333 206.865 213.383 194.367 234.938 198.168C258.384 202.302 255.74 223.379 255.19 226.499C254.423 230.848 251.994 234.124 246.082 235.031C241.372 235.76 234.193 235.567 229.243 234.889C227.73 234.622 227.374 233.877 227.196 232.676C226.612 229.356 225.899 222.894 225.966 222.516C226.149 221.476 226.989 221.137 228.268 221.07C233.384 220.802 234.079 220.73 234.313 219.406C234.463 218.555 233.2 215.213 229.229 214.513C224.691 213.713 220.209 217.017 219.176 222.878C217.992 229.591 221.575 238.021 233.392 240.105C234.054 240.221 234.811 240.355 235.489 240.377L235.678 240.41C237.002 240.644 238.459 241.778 238.175 243.385C238.009 244.331 234.417 250.326 232.432 253.29C231.409 254.67 229.947 255.777 227.205 255.293Z"
      fill="#CBA6F7"
    />
<path
      d="M186.214 233.838L185.394 236.898C184.003 242.091 184.09 246.587 186.948 251.129C187.38 251.742 188.059 252.918 187.786 253.938C187.636 254.494 187.209 254.976 186.436 255.265C186.386 255.451 175.442 259.575 175.442 259.575C174.316 260.068 173.314 260.098 172.479 259.874C170.81 259.427 157.291 250.537 161.713 234.031L162.558 230.878C165.167 221.142 161.531 215.795 154.861 213.61L144.08 246.798C143.832 247.726 142.773 248.337 141.846 248.088L141.661 248.039L123.363 242.142C122.275 241.751 121.757 240.718 122.055 239.605L137.479 192.057C137.845 191.062 138.904 190.451 139.831 190.699L140.016 190.749L150.253 194.088C154.068 194.315 157.598 194.864 160.937 195.758C179.761 200.802 190.96 216.127 186.214 233.838Z"
      fill="#CBA6F7"
    />
</mask>
<g mask="url(#mask0_1_107)">
<path
      d="M392.454 226.907V230.075C392.454 235.451 393.702 239.771 397.638 243.419C398.214 243.899 399.174 244.859 399.174 245.915C399.174 246.491 398.886 247.067 398.214 247.547C398.214 247.739 388.71 254.555 388.71 254.555C387.75 255.323 386.79 255.611 385.926 255.611C384.198 255.611 368.838 250.523 368.838 233.435V230.171C368.838 220.091 363.942 215.867 356.934 215.483L355.11 250.331C355.11 251.291 354.246 252.155 353.286 252.155H353.094L333.894 251.195C332.742 251.099 331.974 250.235 331.974 249.083L334.566 199.163C334.662 198.107 335.526 197.243 336.486 197.243H336.678L347.43 197.819C351.174 197.051 354.726 196.667 358.182 196.667C377.67 196.667 392.454 208.571 392.454 226.907Z"
      fill="#CDD6F4"
    />
<path
      d="M353.286 264.655C358.509 264.655 363.114 261.804 365.617 257.585C366.615 258.653 367.649 259.624 368.693 260.501C371.763 263.081 374.891 264.84 377.473 265.982C378.769 266.555 380.018 267.012 381.162 267.349C381.862 267.556 383.776 268.111 385.926 268.111C389.62 268.111 393.183 266.869 396.191 264.572L396.413 264.413C396.676 264.223 397.052 263.953 397.502 263.629C398.402 262.981 399.606 262.111 400.814 261.232C402.012 260.361 403.254 259.452 404.213 258.735C404.679 258.387 405.153 258.028 405.541 257.722C405.714 257.586 406.004 257.355 406.305 257.094C406.345 257.059 406.41 257.002 406.494 256.927C409.375 254.477 411.674 250.686 411.674 245.915C411.674 241.669 409.813 238.596 408.755 237.132C407.782 235.784 406.746 234.777 406.012 234.134C405.555 233.685 405.412 233.383 405.315 233.118C405.165 232.705 404.954 231.837 404.954 230.075V226.907C404.954 214.12 399.687 203.089 390.772 195.43C382.019 187.91 370.413 184.167 358.182 184.167C354.328 184.167 350.473 184.544 346.566 185.255L337.347 184.761L337.013 184.743H336.678H336.486C328.063 184.743 322.704 191.581 322.117 198.031L322.095 198.273L322.083 198.515L319.491 248.435L319.474 248.759V249.083C319.474 256.526 325.018 262.999 332.856 263.652L333.063 263.669L333.27 263.679L352.47 264.639L352.782 264.655H353.094H353.286Z"
      stroke="#89B4FA"
      stroke-opacity="0.75"
      stroke-width="25"
    />
<path
      d="M322.65 225.467C322.65 206.747 303.642 196.283 290.01 196.283C274.362 196.283 260.634 207.611 260.634 224.507C260.634 244.283 275.418 254.555 292.314 254.555C313.53 254.555 322.65 237.947 322.65 225.467ZM292.314 214.619C299.13 214.619 302.202 220.187 302.202 225.659C302.202 227.483 301.818 236.795 292.026 236.795C283.962 236.795 281.658 229.979 281.658 225.659C281.658 219.035 286.842 214.619 292.314 214.619Z"
      fill="#CDD6F4"
    />
<path
      d="M290.01 183.783C299.652 183.783 310.473 187.353 319.054 193.94C327.875 200.712 335.15 211.4 335.15 225.467C335.15 234.487 331.93 244.717 324.899 252.86C317.58 261.337 306.535 267.055 292.314 267.055C281.436 267.055 270.43 263.751 261.945 256.388C253.225 248.821 248.134 237.777 248.134 224.507C248.134 199.717 268.492 183.783 290.01 183.783ZM290.025 225.659C289.997 225.693 289.971 225.727 289.946 225.76C289.95 225.766 289.955 225.771 289.959 225.777C290.232 226.126 290.67 226.524 291.258 226.811C291.537 226.947 291.791 227.029 291.995 227.074C292.006 227.076 292.016 227.078 292.026 227.08C292.111 227.098 292.179 227.108 292.229 227.113C292.285 227.119 292.314 227.119 292.314 227.119C292.919 227.119 293.366 226.892 293.664 226.602C293.831 226.438 293.968 226.24 294.059 226.026C294.096 225.937 294.12 225.86 294.134 225.8C294.111 225.76 294.081 225.713 294.044 225.659C294.04 225.652 294.035 225.645 294.03 225.639C293.811 225.328 293.401 224.902 292.8 224.587C292.611 224.489 292.446 224.423 292.314 224.38C292.208 224.345 292.124 224.324 292.065 224.312C292.053 224.315 292.04 224.318 292.026 224.321C292.014 224.324 292.002 224.327 291.989 224.331C291.749 224.396 291.404 224.531 291.024 224.774C290.572 225.062 290.247 225.384 290.025 225.659ZM294.207 225.944C294.21 225.953 294.212 225.956 294.212 225.956C294.212 225.956 294.21 225.952 294.207 225.944ZM289.661 225.277C289.66 225.276 289.66 225.275 289.66 225.275C289.66 225.275 289.66 225.276 289.661 225.277C289.661 225.277 289.661 225.277 289.661 225.277Z"
      stroke="#89B4FA"
      stroke-opacity="0.75"
      stroke-width="25"
    />
<path
      d="M232.292 254.747H231.14C209.348 254.747 198.404 239.867 198.404 225.275C198.404 211.547 208.1 197.147 229.988 197.147C253.796 197.147 254.852 218.363 254.852 221.531C254.852 225.947 253.028 229.595 247.364 231.515C242.852 233.051 235.748 234.107 230.756 234.299C229.22 234.299 228.74 233.627 228.356 232.475C227.204 229.307 225.38 223.067 225.38 222.683C225.38 221.627 226.148 221.147 227.396 220.859C232.388 219.707 233.06 219.515 233.06 218.171C233.06 217.307 231.236 214.235 227.204 214.235C222.596 214.235 218.756 218.267 218.756 224.219C218.756 231.035 223.748 238.715 235.748 238.715C236.42 238.715 237.188 238.715 237.86 238.619H238.052C239.396 238.619 241.028 239.483 241.028 241.115C241.028 242.075 238.532 248.603 237.092 251.867C236.324 253.403 235.076 254.747 232.292 254.747Z"
      fill="#CDD6F4"
    />
<path
      d="M253.446 242.565C257.401 240.882 260.969 238.293 263.554 234.51C266.539 230.139 267.352 225.432 267.352 221.531C267.352 219.089 267.026 210.437 262.215 201.974C256.822 192.485 246.524 184.647 229.988 184.647C216.153 184.647 204.853 189.286 197.019 197.357C189.339 205.269 185.904 215.546 185.904 225.275C185.904 235.644 189.788 246.227 197.694 254.254C205.737 262.42 217.243 267.247 231.14 267.247H232.292C235.804 267.247 239.417 266.358 242.606 264.131C245.669 261.992 247.35 259.303 248.273 257.457L248.407 257.188L248.529 256.913C249.372 255.002 250.448 252.316 251.315 249.988C251.749 248.821 252.178 247.617 252.516 246.566C252.681 246.052 252.867 245.444 253.025 244.828C253.028 244.819 253.031 244.807 253.035 244.792C253.092 244.576 253.321 243.708 253.446 242.565Z"
      stroke="#89B4FA"
      stroke-opacity="0.75"
      stroke-width="25"
    />
<path
      d="M189.809 224.464L190.085 227.62C190.554 232.975 192.226 237.166 196.628 240.442C197.267 240.868 198.347 241.737 198.439 242.789C198.49 243.363 198.241 243.963 197.585 244.502C197.602 244.694 188.334 252.346 188.334 252.346C187.405 253.199 186.433 253.573 185.537 253.651C183.744 253.808 167.361 250.134 165.872 233.111L165.587 229.859C164.709 219.818 159.26 216.054 151.954 216.308L153.099 251.189C153.183 252.145 152.361 253.084 151.365 253.172L151.166 253.189L131.158 253.976C129.954 253.985 129.082 253.194 128.982 252.046L127.321 202.081C127.328 201.02 128.15 200.081 129.146 199.994L129.345 199.976L140.553 199.574C144.371 198.469 148.023 197.764 151.61 197.45C171.832 195.681 188.211 206.198 189.809 224.464Z"
      fill="#CDD6F4"
    />
<path
      d="M152.455 265.624C157.647 265.17 162.367 261.791 164.463 256.94C165.821 258.177 167.223 259.261 168.62 260.2C171.991 262.464 175.339 263.908 178.055 264.79C179.421 265.234 180.721 265.566 181.897 265.791C182.638 265.932 184.552 266.285 186.626 266.104C190.214 265.79 193.636 264.326 196.478 261.832L196.7 261.649C196.957 261.436 197.323 261.133 197.762 260.769C198.638 260.042 199.811 259.067 200.988 258.083C202.155 257.106 203.362 256.089 204.292 255.291C204.745 254.902 205.202 254.505 205.573 254.169C205.739 254.019 206.014 253.768 206.296 253.488C206.336 253.448 206.402 253.382 206.487 253.294C209.181 250.666 211.325 246.649 210.892 241.7C210.508 237.316 208.237 234.362 207.035 233.024C205.909 231.772 204.755 230.872 203.954 230.31C203.402 229.875 203.239 229.586 203.138 229.376C202.972 229.031 202.688 228.243 202.538 226.53L202.262 223.374C201.131 210.446 194.61 199.906 184.776 193.144C175.151 186.525 162.982 183.908 150.52 184.998C146.551 185.345 142.606 186.069 138.626 187.135L128.897 187.484L128.576 187.496L128.256 187.524L128.056 187.541C120.045 188.242 114.87 195.097 114.821 201.991L114.819 202.244L114.828 202.496L116.489 252.462L116.5 252.799L116.529 253.136C117.216 260.988 123.746 266.531 131.251 266.476L131.45 266.474L131.649 266.466L151.657 265.679L151.957 265.668L152.255 265.642L152.455 265.624Z"
      stroke="#89B4FA"
      stroke-opacity="0.75"
      stroke-width="25"
    />
<rect
      x="103.957"
      y="167.249"
      width="303.259"
      height="29.5601"
      transform="rotate(19 103.957 167.249)"
      fill="#CBA6F7"
      fill-opacity="0.8"
    />
</g>
<g clip-path="url(#clip0_1_107)">
<path
      d="M155.245 246.813L147.995 250.194L150.164 269.043L124.074 241.487L126.243 260.336L118.993 263.717"
      stroke="#F19EDC"
      stroke-width="4"
      stroke-linecap="round"
      stroke-linejoin="round"
    />
</g>
<path
    d="M125.725 167.371L142.725 167.371C144.134 167.371 145.485 167.898 146.481 168.835C147.478 169.773 148.037 171.045 148.037 172.371L148.037 188.371C148.037 189.697 147.478 190.969 146.481 191.906C145.485 192.844 144.134 193.371 142.725 193.371L125.725 193.371C124.316 193.371 122.965 192.844 121.968 191.906C120.972 190.969 120.412 189.697 120.412 188.371L120.412 172.371C120.412 171.045 120.972 169.773 121.968 168.835C122.965 167.898 124.316 167.371 125.725 167.371Z"
    stroke="#89B4FA"
    stroke-linecap="round"
    stroke-linejoin="round"
  />
<path
    d="M143.787 181.871C143.787 180.491 142.64 179.371 141.237 179.371L139.962 179.371C138.56 179.371 137.412 180.491 137.412 181.871C137.412 183.251 138.56 184.371 139.962 184.371L141.237 184.371C142.64 184.371 143.787 185.491 143.787 186.871C143.787 188.251 142.64 189.371 141.237 189.371L139.962 189.371C138.56 189.371 137.412 188.251 137.412 186.871M131.037 179.371L131.037 189.371M127.85 179.371L134.225 179.371"
    stroke="#89B4FA"
    stroke-linecap="round"
    stroke-linejoin="round"
  />
<g clip-path="url(#clip1_1_107)">
<path
      d="M355.131 262.964L361.475 262.964M363.994 259.339L357.941 269.308"
      stroke="#74C7EC"
      stroke-linecap="round"
      stroke-linejoin="round"
    />
<path
      d="M361.475 252.089L364.194 256.621M370.537 257.527L358.847 257.527"
      stroke="#89B4FA"
      stroke-linecap="round"
      stroke-linejoin="round"
    />
<path
      d="M375.975 252.089L373.256 257.527M375.087 262.239L369.631 252.089"
      stroke="#74C7EC"
      stroke-linecap="round"
      stroke-linejoin="round"
    />
<path
      d="M382.319 264.813L375.975 264.777M373.474 268.402L379.6 258.433"
      stroke="#89B4FA"
      stroke-linecap="round"
      stroke-linejoin="round"
    />
<path
      d="M376.881 275.652L372.35 270.214M366.967 270.251L378.712 270.214"
      stroke="#74C7EC"
      stroke-linecap="round"
      stroke-linejoin="round"
    />
<path
      d="M361.475 275.652L364.194 270.214M362.436 265.683L367.819 275.652"
      stroke="#89B4FA"
      stroke-linecap="round"
      stroke-linejoin="round"
    />
</g>
<g clip-path="url(#clip2_1_107)">
<path
      d="M412.404 218.627L428.351 212.823L422.547 196.876M408.046 190.114L392.099 195.918L397.903 211.866"
      stroke="#F19EDC"
      stroke-width="4"
      stroke-linecap="round"
      stroke-linejoin="round"
    />
</g>
<g clip-path="url(#clip3_1_107)">
<path
      d="M152.333 297C152.333 301.602 148.602 305.333 144 305.333M152.333 297C152.333 292.398 148.602 288.667 144 288.667M152.333 297L135.667 297M144 305.333C139.398 305.333 135.667 301.602 135.667 297M144 305.333C146.084 303.051 147.269 300.09 147.333 297C147.269 293.91 146.084 290.949 144 288.667M144 305.333C141.916 303.051 140.731 300.09 140.667 297C140.731 293.91 141.916 290.949 144 288.667M135.667 297C135.667 292.398 139.398 288.667 144 288.667"
      stroke="#F19EDC"
      stroke-width="2"
      stroke-linecap="round"
      stroke-linejoin="round"
    />
</g>
<path
    d="M160.608 300.648H160.476C160.212 300.648 160.092 300.6 160.02 300.396L159.492 299.004C159.48 298.968 159.468 298.932 159.468 298.908C159.468 298.728 159.708 298.704 159.852 298.704C160.56 298.692 160.896 298.356 160.896 298.068C160.896 297.912 160.74 297.72 160.572 297.504L160.248 297.144C159.72 296.544 159.504 296.028 159.504 295.572C159.504 294.216 161.46 293.496 163.032 293.496C163.5 293.496 163.62 293.544 163.704 293.76L164.244 295.152C164.268 295.2 164.268 295.236 164.268 295.272C164.268 295.404 164.136 295.452 163.98 295.452H163.932C163.212 295.452 162.936 295.692 162.936 295.932C162.936 296.136 163.116 296.364 163.572 296.868C164.124 297.468 164.364 298.008 164.364 298.464C164.364 299.88 162.216 300.648 160.608 300.648ZM173.559 298.932L172.815 300.384C172.707 300.588 172.587 300.696 172.431 300.696C172.311 300.696 171.471 300.504 170.871 299.94C170.247 300.264 169.599 300.408 168.987 300.408C166.983 300.408 165.255 298.872 165.255 296.94C165.255 295.5 166.275 293.424 168.651 293.424C169.251 293.424 169.839 293.556 170.307 293.76C170.379 293.676 170.487 293.64 170.631 293.64H170.691L172.767 293.82C173.079 293.844 173.163 294 173.163 294.144V294.204C172.995 295.296 172.827 296.34 172.827 297.132C172.827 297.852 172.959 298.368 173.343 298.572C173.463 298.632 173.595 298.704 173.595 298.824C173.595 298.848 173.583 298.884 173.559 298.932ZM170.043 298.056C170.007 297.744 169.983 297.408 169.983 297.036C169.983 296.724 169.995 296.4 170.019 296.04C169.875 295.8 169.551 295.632 169.203 295.632C168.447 295.632 168.027 296.364 168.027 296.976C168.027 297.648 168.495 298.224 169.275 298.224C169.503 298.224 169.767 298.176 170.043 298.056ZM182.512 298.932L181.768 300.384C181.66 300.588 181.54 300.696 181.384 300.696C181.264 300.696 180.424 300.504 179.824 299.94C179.2 300.264 178.552 300.408 177.94 300.408C175.936 300.408 174.208 298.872 174.208 296.94C174.208 295.5 175.228 293.424 177.604 293.424C178.204 293.424 178.792 293.556 179.26 293.76C179.332 293.676 179.44 293.64 179.584 293.64H179.644L181.72 293.82C182.032 293.844 182.116 294 182.116 294.144V294.204C181.948 295.296 181.78 296.34 181.78 297.132C181.78 297.852 181.912 298.368 182.296 298.572C182.416 298.632 182.548 298.704 182.548 298.824C182.548 298.848 182.536 298.884 182.512 298.932ZM178.996 298.056C178.96 297.744 178.936 297.408 178.936 297.036C178.936 296.724 178.948 296.4 178.972 296.04C178.828 295.8 178.504 295.632 178.156 295.632C177.4 295.632 176.98 296.364 176.98 296.976C176.98 297.648 177.448 298.224 178.228 298.224C178.456 298.224 178.72 298.176 178.996 298.056ZM191.969 299.568L190.829 300.504C190.697 300.612 190.577 300.648 190.469 300.648C190.421 300.648 188.201 300.24 188.201 297.804C188.201 296.352 187.529 295.836 186.665 295.836H186.605V300.192C186.605 300.336 186.497 300.444 186.365 300.444H183.965C183.821 300.444 183.713 300.336 183.713 300.192V290.376C183.713 290.244 183.821 290.124 183.965 290.124H186.365C186.497 290.124 186.605 290.244 186.605 290.376V293.496C186.749 293.484 186.893 293.484 187.025 293.484C189.281 293.484 191.081 294.828 191.117 297.204C191.129 297.984 191.285 298.584 191.873 299.052C191.945 299.112 192.077 299.232 192.077 299.364C192.077 299.424 192.053 299.496 191.969 299.568ZM195.922 300.384L193.522 300.504H193.498C193.366 300.504 193.27 300.396 193.258 300.264L192.958 294.42C192.958 294.276 193.054 294.168 193.198 294.156L195.598 294.036H195.622C195.742 294.036 195.85 294.144 195.85 294.264L196.15 300.12V300.144C196.15 300.264 196.042 300.372 195.922 300.384ZM196.042 292.068C196.042 293.04 195.25 293.832 194.278 293.832C193.294 293.832 192.502 293.04 192.502 292.068C192.502 291.084 193.294 290.292 194.278 290.292C195.25 290.292 196.042 291.084 196.042 292.068ZM200.31 300.432H197.898C197.766 300.432 197.658 300.324 197.658 300.192V290.388C197.658 290.244 197.766 290.136 197.898 290.136H200.31C200.442 290.136 200.55 290.244 200.55 290.388V300.192C200.55 300.324 200.442 300.432 200.31 300.432ZM210.349 298.8L209.701 300.3C209.605 300.528 209.485 300.648 209.305 300.648C209.305 300.648 208.273 300.54 207.601 299.868C206.929 300.24 206.233 300.408 205.573 300.408C203.569 300.408 201.853 298.872 201.853 296.94C201.853 295.476 202.873 293.424 205.249 293.424C205.765 293.424 206.281 293.532 206.713 293.688L206.929 290.472C206.941 290.268 207.133 290.148 207.373 290.148L209.449 290.184C209.785 290.184 209.881 290.34 209.881 290.508V290.544C209.857 290.7 209.473 295.704 209.473 296.532C209.473 297.516 209.617 298.248 210.109 298.464C210.241 298.524 210.373 298.584 210.373 298.692C210.373 298.728 210.373 298.764 210.349 298.8ZM206.749 297.996C206.665 297.456 206.617 296.82 206.617 296.052C206.485 295.812 206.149 295.644 205.789 295.644C205.069 295.644 204.613 296.304 204.613 296.976C204.613 297.648 205.081 298.224 205.849 298.224C206.113 298.224 206.413 298.152 206.749 297.996ZM214.334 299.136C214.334 299.964 213.662 300.636 212.834 300.636C211.994 300.636 211.322 299.964 211.322 299.136C211.322 298.308 211.994 297.624 212.834 297.624C213.662 297.624 214.334 298.308 214.334 299.136ZM222.137 294.264L221.573 295.716C221.525 295.86 221.393 295.98 221.249 295.98C221.201 295.98 221.141 295.956 221.093 295.92C220.877 295.74 220.457 295.608 220.037 295.608C219.725 295.608 218.681 295.68 218.681 296.988C218.681 297.792 219.257 298.32 220.037 298.32C220.553 298.32 221.153 298.092 221.729 297.564C221.801 297.492 221.909 297.432 222.017 297.432C222.101 297.432 222.197 297.48 222.281 297.624C222.497 298.032 222.641 298.248 222.833 298.644C222.869 298.716 222.893 298.8 222.893 298.884C222.893 299.028 222.833 299.16 222.689 299.304C221.717 300.228 220.565 300.636 219.485 300.636C217.493 300.636 215.729 299.244 215.729 297.132C215.729 294.444 217.877 293.352 219.857 293.352C221.189 293.352 222.149 293.88 222.149 294.18C222.149 294.204 222.149 294.24 222.137 294.264ZM231.108 297C231.108 299.34 228.732 300.648 227.028 300.648C225.072 300.648 223.356 299.232 223.356 297.12C223.356 294.648 225.204 293.364 227.316 293.364C229.968 293.364 231.108 295.44 231.108 297ZM227.316 298.356C228.168 298.356 228.552 297.66 228.552 296.976C228.552 296.748 228.504 295.584 227.28 295.584C226.272 295.584 225.984 296.436 225.984 296.976C225.984 297.804 226.632 298.356 227.316 298.356ZM238.681 300.372L236.449 300.492H236.425C236.305 300.492 236.209 300.384 236.197 300.252L236.077 297.72C236.017 296.508 235.765 296.004 235.009 295.944L235.225 300.3C235.225 300.444 235.129 300.552 234.997 300.564L232.753 300.672H232.729C232.609 300.672 232.513 300.564 232.501 300.432L232.201 294.192V294.168C232.201 294.036 232.297 293.94 232.417 293.928L233.137 293.892C233.749 293.688 234.349 293.592 234.925 293.592C235.465 293.592 235.969 293.676 236.437 293.856C237.205 293.568 237.937 293.436 238.609 293.436C240.721 293.436 242.269 294.768 242.401 296.952C242.449 297.732 242.581 298.32 243.145 298.764C243.217 298.824 243.361 298.944 243.361 299.076C243.361 299.136 243.337 299.208 243.265 299.268C243.265 299.292 242.245 300.264 242.245 300.264C242.113 300.384 242.005 300.432 241.885 300.432C241.717 300.432 239.833 300.06 239.689 297.696C239.629 296.4 239.377 295.92 238.693 295.824L238.909 300.108C238.909 300.252 238.813 300.36 238.681 300.372Z"
    fill="#89B4FA"
  />
<defs>
<clipPath id="clip0_1_107">
<rect
        width="48"
        height="48"
        fill="white"
        transform="translate(105.225 243.656) rotate(-25)"
      />
</clipPath>
<clipPath id="clip1_1_107">
<rect
        width="29"
        height="29"
        fill="white"
        transform="translate(354.225 249.371)"
      />
</clipPath>
<clipPath id="clip2_1_107">
<rect
        width="48"
        height="48"
        fill="white"
        transform="translate(398.616 172.477) rotate(25)"
      />
</clipPath>
<clipPath id="clip3_1_107">
<rect width="20" height="20" fill="white" transform="translate(134 287)" />
</clipPath>
</defs>
</svg>
